<?xml version="1.0" encoding="utf-8"?>
<!-- Generator: Adobe Illustrator 17.0.0, SVG Export Plug-In . SVG Version: 6.00 Build 0)  -->
<!DOCTYPE svg PUBLIC "-//W3C//DTD SVG 1.1//EN" "http://www.w3.org/Graphics/SVG/1.1/DTD/svg11.dtd">
<svg version="1.1" id="Layer_1" xmlns="http://www.w3.org/2000/svg" xmlns:xlink="http://www.w3.org/1999/xlink" x="0px" y="0px"
	 width="610px" height="309px" viewBox="0 0 610 309" enable-background="new 0 0 610 309" xml:space="preserve">
<g>
	<path fill="#FA6400" d="M148.711,186.209c5.438-15.805,11.681-33.663,18.813-53.495c3.866-10.782,8.647-21.982,13.626-32.696
		c4.971,10.715,9.748,21.914,13.618,32.696c7.124,19.832,13.379,37.69,18.817,53.495H148.711z M227.945,41.466h-93.603
		c0,0-24.142,34.969-47.707,91.237C56.044,205.761,34.638,271.12,34.638,271.12h86.31c0,0,3.818-12.917,11.786-37.309h96.827
		c7.96,24.393,11.786,37.309,11.786,37.309h86.303c0,0-21.399-65.359-52.002-138.417C252.084,76.435,227.945,41.466,227.945,41.466
		 M521.88,186.209v-48.897c-3.676,3.46-17.376,6.046-33.771,6.046c-16.395,0-30.099-2.586-33.768-6.046v48.897h-34.349
		c-6.665,0-28.382,0-11.103-46.251c15.79-42.243,48.113-98.492,48.113-98.492h-80.201c0,0-24.146,34.969-47.71,91.237
		c-24.214,57.813-4.87,101.108,43.583,101.108h81.668v37.309c0,4.37,15.115,7.897,33.768,7.897c18.653,0,33.771-3.527,33.771-7.897
		v-37.309h37.313v-47.602H521.88z"/>
	<path fill="#111111" d="M512.254,119.587l-24.146-39.832l-24.154,39.832c-1.612,2.661,10.823,5.654,24.154,5.654
		C501.445,125.241,513.884,122.248,512.254,119.587"/>
</g>
</svg>
